<svg width="17" height="17" viewBox="0 0 17 17" fill="none" xmlns="http://www.w3.org/2000/svg">
<path d="M8.01562 1.92188C8.60156 1.92188 9.09961 2.12695 9.50977 2.53711C9.91992 2.94727 10.125 3.44531 10.125 4.03125C10.125 4.59615 9.91992 5.08053 9.50977 5.48438C9.09717 5.89062 8.59912 6.09375 8.01562 6.09375C7.43213 6.09375 6.93408 5.89062 6.52148 5.48438C6.11133 5.08053 5.90625 4.59615 5.90625 4.03125C5.90625 3.44531 6.11133 2.94727 6.52148 2.53711C6.93164 2.12695 7.42969 1.92188 8.01562 1.92188ZM8.01562 10.9219C8.93642 10.9219 9.90054 11.0556 10.908 11.3229C11.7912 11.5573 12.5505 11.8473 13.1858 12.1927C13.8015 12.5276 14.1094 12.8071 14.1094 13.0312V14.1094H1.92188V13.0312C1.92188 12.8071 2.22975 12.5276 2.84549 12.1927C3.48074 11.8473 4.24 11.5573 5.12326 11.3229C6.13071 11.0556 7.09483 10.9219 8.01562 10.9219ZM8.01562 0C6.917 0 5.97755 0.396484 5.19727 1.18945C4.41992 1.97944 4.03125 2.9267 4.03125 4.03125C4.03125 5.13281 4.41992 6.07227 5.19727 6.84961C5.97461 7.62695 6.91406 8.01562 8.01562 8.01562C9.11719 8.01562 10.0566 7.62695 10.834 6.84961C11.6113 6.07227 12 5.13281 12 4.03125C12 2.9267 11.6113 1.97944 10.834 1.18945C10.0537 0.396484 9.11425 0 8.01562 0ZM8.01562 9C7.02833 9 5.93979 9.15046 4.75 9.45139C3.405 9.79157 2.31646 10.2406 1.48437 10.7986C0.494792 11.4622 0 12.2064 0 13.0312V16.0312H16.0312V13.0312C16.0312 12.2064 15.5365 11.4622 14.5469 10.7986C13.7148 10.2406 12.6263 9.79157 11.2812 9.45139C10.0915 9.15046 9.00292 9 8.01562 9Z" fill="#94A3B8"/>
</svg>
